<svg width="100" height="53" viewBox="0 0 100 53" fill="none" xmlns="http://www.w3.org/2000/svg">
<g filter="url(#filter0_d_2_9)">
<path d="M24.3138 26H19.0497C18.8257 26 18.7138 25.888 18.7138 25.664V16.048C18.7138 15.824 18.8257 15.712 19.0497 15.712H20.4097C20.6337 15.712 20.7457 15.824 20.7457 16.048V24.048C20.7457 24.1653 20.8098 24.224 20.9378 24.224H24.3138C24.5271 24.224 24.6338 24.3413 24.6338 24.576V25.664C24.6338 25.888 24.5271 26 24.3138 26ZM33.9813 24.24H35.1173C35.4586 24.24 35.6986 24.1707 35.8373 24.032C35.9866 23.8827 36.0613 23.6373 36.0613 23.296V18.416C36.0613 18.0747 35.9866 17.8347 35.8373 17.696C35.6986 17.5467 35.4586 17.472 35.1173 17.472H33.9813C33.6399 17.472 33.3999 17.5467 33.2613 17.696C33.1226 17.8347 33.0533 18.0747 33.0533 18.416V23.296C33.0533 23.6373 33.1226 23.8827 33.2613 24.032C33.3999 24.1707 33.6399 24.24 33.9813 24.24ZM35.4533 26H33.6613C32.8186 26 32.1679 25.776 31.7093 25.328C31.2506 24.88 31.0213 24.2347 31.0213 23.392V18.32C31.0213 17.4773 31.2506 16.832 31.7093 16.384C32.1679 15.936 32.8186 15.712 33.6613 15.712H35.4533C36.2959 15.712 36.9466 15.936 37.4053 16.384C37.8639 16.832 38.0933 17.4773 38.0933 18.32V23.392C38.0933 24.2347 37.8639 24.88 37.4053 25.328C36.9466 25.776 36.2959 26 35.4533 26ZM50.5534 15.712H51.8974C52.132 15.712 52.2494 15.8187 52.2494 16.032V23.392C52.2494 24.224 52.0147 24.8693 51.5454 25.328C51.0867 25.776 50.4414 26 49.6094 26H47.8494C47.0067 26 46.356 25.776 45.8974 25.328C45.4387 24.88 45.2094 24.2347 45.2094 23.392V16.048C45.2094 15.824 45.3214 15.712 45.5454 15.712H46.9054C47.1294 15.712 47.2414 15.824 47.2414 16.048V23.296C47.2414 23.6373 47.3107 23.8827 47.4494 24.032C47.5987 24.1707 47.8387 24.24 48.1694 24.24H49.2734C49.6147 24.24 49.8547 24.1707 49.9934 24.032C50.1427 23.8827 50.2174 23.6373 50.2174 23.296V16.048C50.2174 15.824 50.3294 15.712 50.5534 15.712ZM61.7305 24.24H63.4745C63.8158 24.24 64.0558 24.1707 64.1945 24.032C64.3438 23.8827 64.4185 23.6373 64.4185 23.296V18.416C64.4185 18.0747 64.3438 17.8347 64.1945 17.696C64.0558 17.5467 63.8158 17.472 63.4745 17.472H61.7305C61.6132 17.472 61.5545 17.5307 61.5545 17.648V24.064C61.5545 24.1813 61.6132 24.24 61.7305 24.24ZM59.5225 25.664V16.048C59.5225 15.824 59.6345 15.712 59.8585 15.712H63.8105C64.6425 15.712 65.2878 15.9413 65.7465 16.4C66.2158 16.848 66.4505 17.488 66.4505 18.32V23.392C66.4505 24.224 66.2158 24.8693 65.7465 25.328C65.2878 25.776 64.6425 26 63.8105 26H59.8585C59.6345 26 59.5225 25.888 59.5225 25.664Z" fill="url(#paint0_linear_2_9)" style="mix-blend-mode:plus-lighter" shape-rendering="crispEdges"/>
</g>
<g filter="url(#filter1_d_2_9)">
<path d="M21.9803 42H13.9163C11.1429 42 8.94558 41.1893 7.32425 39.568C5.74558 37.9467 4.95625 35.728 4.95625 32.912V9.936C4.95625 7.12 5.74558 4.90133 7.32425 3.28C8.94558 1.65867 11.1429 0.848 13.9163 0.848H21.9803C24.7536 0.848 26.9296 1.65867 28.5083 3.28C30.1296 4.90133 30.9403 7.12 30.9403 9.936V13.072C30.9403 13.584 30.7056 13.84 30.2363 13.84H28.4443C27.9749 13.84 27.7403 13.584 27.7403 13.072V10.064C27.7403 8.016 27.2069 6.45866 26.1403 5.392C25.1163 4.28266 23.6229 3.728 21.6603 3.728H14.1723C12.2096 3.728 10.7163 4.28266 9.69225 5.392C8.66825 6.50133 8.15625 8.05867 8.15625 10.064V32.784C8.15625 34.7893 8.66825 36.3467 9.69225 37.456C10.7163 38.5653 12.2096 39.12 14.1723 39.12H21.6603C23.6229 39.12 25.1163 38.5867 26.1403 37.52C27.2069 36.4107 27.7403 34.832 27.7403 32.784V29.776C27.7403 29.264 27.9749 29.008 28.4443 29.008H30.2363C30.7056 29.008 30.9403 29.264 30.9403 29.776V32.912C30.9403 35.728 30.1296 37.9467 28.5083 39.568C26.9296 41.1893 24.7536 42 21.9803 42Z" fill="url(#paint1_linear_2_9)" style="mix-blend-mode:plus-lighter" shape-rendering="crispEdges"/>
</g>
<g filter="url(#filter2_d_2_9)">
<path d="M35.4532 45H34.0932C33.8692 45 33.7572 44.888 33.7572 44.664V35.048C33.7572 34.824 33.8692 34.712 34.0932 34.712H37.9972C38.8292 34.712 39.4745 34.9413 39.9332 35.4C40.3919 35.848 40.6212 36.488 40.6212 37.32V38.856C40.6212 39.688 40.3919 40.3333 39.9332 40.792C39.4745 41.24 38.8292 41.464 37.9972 41.464H35.9812C35.8532 41.464 35.7892 41.5227 35.7892 41.64V44.664C35.7892 44.888 35.6772 45 35.4532 45ZM35.9652 39.688H37.6612C38.0025 39.688 38.2425 39.6187 38.3812 39.48C38.5199 39.3307 38.5892 39.0907 38.5892 38.76V37.416C38.5892 37.0747 38.5199 36.8347 38.3812 36.696C38.2425 36.5467 38.0025 36.472 37.6612 36.472H35.9652C35.8479 36.472 35.7892 36.5307 35.7892 36.648V39.512C35.7892 39.6293 35.8479 39.688 35.9652 39.688ZM44.7376 45H43.3776C43.1536 45 43.0416 44.888 43.0416 44.664V35.048C43.0416 34.824 43.1536 34.712 43.3776 34.712H47.1856C48.0176 34.712 48.6682 34.9413 49.1376 35.4C49.6069 35.8587 49.8416 36.504 49.8416 37.336V38.584C49.8416 39.7893 49.3669 40.5893 48.4176 40.984V41.048L50.1296 44.616C50.2256 44.872 50.1349 45 49.8576 45H48.5616C48.3696 45 48.2309 44.9787 48.1456 44.936C48.0602 44.8933 47.9909 44.8027 47.9376 44.664L46.3376 41.208H45.2656C45.1376 41.208 45.0736 41.2667 45.0736 41.384V44.664C45.0736 44.888 44.9616 45 44.7376 45ZM45.2496 39.576H46.8176C47.1589 39.576 47.4096 39.5067 47.5696 39.368C47.7296 39.2187 47.8096 38.984 47.8096 38.664V37.416C47.8096 37.0853 47.7296 36.8453 47.5696 36.696C47.4096 36.5467 47.1589 36.472 46.8176 36.472H45.2496C45.1322 36.472 45.0736 36.5307 45.0736 36.648V39.4C45.0736 39.5173 45.1322 39.576 45.2496 39.576ZM55.3916 43.24H56.5276C56.8689 43.24 57.1089 43.1707 57.2476 43.032C57.3969 42.8827 57.4716 42.6373 57.4716 42.296V37.416C57.4716 37.0747 57.3969 36.8347 57.2476 36.696C57.1089 36.5467 56.8689 36.472 56.5276 36.472H55.3916C55.0502 36.472 54.8102 36.5467 54.6716 36.696C54.5329 36.8347 54.4636 37.0747 54.4636 37.416V42.296C54.4636 42.6373 54.5329 42.8827 54.6716 43.032C54.8102 43.1707 55.0502 43.24 55.3916 43.24ZM56.8636 45H55.0716C54.2289 45 53.5782 44.776 53.1196 44.328C52.6609 43.88 52.4316 43.2347 52.4316 42.392V37.32C52.4316 36.4773 52.6609 35.832 53.1196 35.384C53.5782 34.936 54.2289 34.712 55.0716 34.712H56.8636C57.7062 34.712 58.3569 34.936 58.8156 35.384C59.2742 35.832 59.5036 36.4773 59.5036 37.32V42.392C59.5036 43.2347 59.2742 43.88 58.8156 44.328C58.3569 44.776 57.7062 45 56.8636 45ZM66.8757 34.712H68.2197C68.4437 34.712 68.5557 34.8187 68.5557 35.032V42.392C68.5557 43.224 68.3264 43.8693 67.8677 44.328C67.409 44.776 66.7637 45 65.9317 45H64.3317C63.489 45 62.8384 44.776 62.3797 44.328C61.921 43.88 61.6917 43.2347 61.6917 42.392V40.888C61.6917 40.664 61.8037 40.552 62.0277 40.552H63.3877C63.6117 40.552 63.7237 40.664 63.7237 40.888V42.296C63.7237 42.6373 63.793 42.8827 63.9317 43.032C64.081 43.1707 64.321 43.24 64.6517 43.24H65.5957C65.937 43.24 66.177 43.1707 66.3157 43.032C66.4544 42.8827 66.5237 42.6373 66.5237 42.296V35.048C66.5237 34.824 66.641 34.712 66.8757 34.712ZM76.9314 45H71.6994C71.4754 45 71.3634 44.888 71.3634 44.664V35.048C71.3634 34.824 71.4754 34.712 71.6994 34.712H76.9314C77.1448 34.712 77.2514 34.824 77.2514 35.048V36.136C77.2514 36.36 77.1448 36.472 76.9314 36.472H73.5874C73.4594 36.472 73.3954 36.5307 73.3954 36.648V38.728C73.3954 38.8453 73.4594 38.904 73.5874 38.904H76.3234C76.5474 38.904 76.6594 39.016 76.6594 39.24V40.328C76.6594 40.552 76.5474 40.664 76.3234 40.664H73.5874C73.4594 40.664 73.3954 40.7227 73.3954 40.84V43.064C73.3954 43.1813 73.4594 43.24 73.5874 43.24H76.9314C77.1448 43.24 77.2514 43.352 77.2514 43.576V44.664C77.2514 44.888 77.1448 45 76.9314 45ZM84.0437 45H82.2997C81.457 45 80.8064 44.776 80.3477 44.328C79.889 43.88 79.6597 43.2347 79.6597 42.392V37.32C79.6597 36.4773 79.889 35.832 80.3477 35.384C80.8064 34.936 81.457 34.712 82.2997 34.712H84.0437C84.8757 34.712 85.521 34.9413 85.9797 35.4C86.449 35.848 86.6837 36.488 86.6837 37.32V38.072C86.6837 38.3067 86.5664 38.424 86.3317 38.424H84.9877C84.7637 38.424 84.6517 38.3067 84.6517 38.072V37.416C84.6517 37.0747 84.577 36.8347 84.4277 36.696C84.289 36.5467 84.049 36.472 83.7077 36.472H82.6197C82.289 36.472 82.049 36.5467 81.8997 36.696C81.761 36.8347 81.6917 37.0747 81.6917 37.416V42.296C81.6917 42.6373 81.761 42.8827 81.8997 43.032C82.049 43.1707 82.289 43.24 82.6197 43.24H83.7077C84.049 43.24 84.289 43.1707 84.4277 43.032C84.577 42.8827 84.6517 42.6373 84.6517 42.296V41.64C84.6517 41.4053 84.7637 41.288 84.9877 41.288H86.3317C86.5664 41.288 86.6837 41.4053 86.6837 41.64V42.392C86.6837 43.224 86.449 43.8693 85.9797 44.328C85.521 44.776 84.8757 45 84.0437 45ZM92.4131 45H91.0691C90.8344 45 90.7171 44.888 90.7171 44.664V36.648C90.7171 36.5307 90.6584 36.472 90.5411 36.472H88.7171C88.4931 36.472 88.3811 36.36 88.3811 36.136V35.048C88.3811 34.824 88.4931 34.712 88.7171 34.712H94.7651C94.9891 34.712 95.1011 34.824 95.1011 35.048V36.136C95.1011 36.36 94.9891 36.472 94.7651 36.472H92.9411C92.8131 36.472 92.7491 36.5307 92.7491 36.648V44.664C92.7491 44.888 92.6371 45 92.4131 45Z" fill="url(#paint2_linear_2_9)" style="mix-blend-mode:plus-lighter" shape-rendering="crispEdges"/>
</g>
<g style="mix-blend-mode:lighten">
<path d="M60.7097 2.80664L60.7247 2.81104L60.7399 2.81449C62.1823 3.14181 64.9962 4.4345 66.1711 7.05345C66.5712 7.94533 67.3411 8.70445 68.3428 8.95637C69.4821 9.24287 70.7772 9.73419 71.808 10.4715C72.8358 11.2067 73.5568 12.1514 73.6703 13.3522C73.6843 13.4995 73.7052 13.6512 73.7378 13.8045C74.0141 15.1039 73.9221 17.0139 72.7772 18.6772C71.6436 20.3239 69.4168 21.8165 65.2484 22.1812C62.5963 22.4132 60.0375 22.6854 57.6493 22.9394L57.4115 22.9647C54.9531 23.2261 52.6831 23.4656 50.6741 23.6209C48.6627 23.7764 46.9311 23.8458 45.5472 23.7709C44.1408 23.6949 43.183 23.4727 42.6473 23.1162C41.3529 22.2548 39.9512 21.191 39.2265 19.7505C38.5275 18.361 38.4173 16.5308 39.9131 14.014L39.497 13.7667L39.9131 14.014C39.9665 13.9242 40.0315 13.8404 40.1022 13.7708C40.8926 12.9925 41.8103 12.3753 42.5675 11.9498C43.4285 11.4659 43.9808 10.5937 44.2146 9.69869C44.4311 8.86954 44.8714 8.00333 45.6344 7.36919C46.3883 6.74269 47.5006 6.306 49.1387 6.40085C50.001 6.45078 50.8625 6.14513 51.492 5.54204C53.341 3.77068 56.8225 1.66527 60.7097 2.80664Z" stroke="url(#paint3_linear_2_9)"/>
</g>
<rect x="34" y="30" width="61" height="1" fill="#C4A4F9"/>
<defs>
<filter id="filter0_d_2_9" x="14.7138" y="15.712" width="55.7367" height="18.288" filterUnits="userSpaceOnUse" color-interpolation-filters="sRGB">
<feFlood flood-opacity="0" result="BackgroundImageFix"/>
<feColorMatrix in="SourceAlpha" type="matrix" values="0 0 0 0 0 0 0 0 0 0 0 0 0 0 0 0 0 0 127 0" result="hardAlpha"/>
<feOffset dy="4"/>
<feGaussianBlur stdDeviation="2"/>
<feComposite in2="hardAlpha" operator="out"/>
<feColorMatrix type="matrix" values="0 0 0 0 0 0 0 0 0 0 0 0 0 0 0 0 0 0 0.25 0"/>
<feBlend mode="normal" in2="BackgroundImageFix" result="effect1_dropShadow_2_9"/>
<feBlend mode="normal" in="SourceGraphic" in2="effect1_dropShadow_2_9" result="shape"/>
</filter>
<filter id="filter1_d_2_9" x="0.956253" y="0.847992" width="33.984" height="49.152" filterUnits="userSpaceOnUse" color-interpolation-filters="sRGB">
<feFlood flood-opacity="0" result="BackgroundImageFix"/>
<feColorMatrix in="SourceAlpha" type="matrix" values="0 0 0 0 0 0 0 0 0 0 0 0 0 0 0 0 0 0 127 0" result="hardAlpha"/>
<feOffset dy="4"/>
<feGaussianBlur stdDeviation="2"/>
<feComposite in2="hardAlpha" operator="out"/>
<feColorMatrix type="matrix" values="0 0 0 0 0 0 0 0 0 0 0 0 0 0 0 0 0 0 0.25 0"/>
<feBlend mode="normal" in2="BackgroundImageFix" result="effect1_dropShadow_2_9"/>
<feBlend mode="normal" in="SourceGraphic" in2="effect1_dropShadow_2_9" result="shape"/>
</filter>
<filter id="filter2_d_2_9" x="29.7572" y="34.712" width="69.3439" height="18.288" filterUnits="userSpaceOnUse" color-interpolation-filters="sRGB">
<feFlood flood-opacity="0" result="BackgroundImageFix"/>
<feColorMatrix in="SourceAlpha" type="matrix" values="0 0 0 0 0 0 0 0 0 0 0 0 0 0 0 0 0 0 127 0" result="hardAlpha"/>
<feOffset dy="4"/>
<feGaussianBlur stdDeviation="2"/>
<feComposite in2="hardAlpha" operator="out"/>
<feColorMatrix type="matrix" values="0 0 0 0 0 0 0 0 0 0 0 0 0 0 0 0 0 0 0.25 0"/>
<feBlend mode="normal" in2="BackgroundImageFix" result="effect1_dropShadow_2_9"/>
<feBlend mode="normal" in="SourceGraphic" in2="effect1_dropShadow_2_9" result="shape"/>
</filter>
<linearGradient id="paint0_linear_2_9" x1="18.3264" y1="26" x2="107.283" y2="86.8333" gradientUnits="userSpaceOnUse">
<stop stop-color="#E728BD"/>
<stop offset="0.14946" stop-color="#AB82EF"/>
<stop offset="0.332542" stop-color="#9B7FC8"/>
<stop offset="0.555308" stop-color="#715A95"/>
</linearGradient>
<linearGradient id="paint1_linear_2_9" x1="5.61806" y1="32.5" x2="67.8429" y2="43.5083" gradientUnits="userSpaceOnUse">
<stop stop-color="#E728BD"/>
<stop offset="0.14946" stop-color="#AB82EF"/>
<stop offset="0.332542" stop-color="#9B7FC8"/>
<stop offset="0.555308" stop-color="#715A95"/>
</linearGradient>
<linearGradient id="paint2_linear_2_9" x1="35.3194" y1="45" x2="128.728" y2="120.787" gradientUnits="userSpaceOnUse">
<stop stop-color="#E728BD"/>
<stop offset="0.14946" stop-color="#AB82EF"/>
<stop offset="0.328" stop-color="#803BF0"/>
<stop offset="0.533" stop-color="#6A28D6"/>
</linearGradient>
<linearGradient id="paint3_linear_2_9" x1="55.0668" y1="2.2465" x2="56.9332" y2="23.5806" gradientUnits="userSpaceOnUse">
<stop offset="0.35" stop-color="#CE70FB"/>
<stop offset="1" stop-color="#7C6A6A" stop-opacity="0"/>
</linearGradient>
</defs>
</svg>
